<mxfile host="Electron" agent="Mozilla/5.0 (Macintosh; Intel Mac OS X 10_15_7) AppleWebKit/537.36 (KHTML, like Gecko) draw.io/24.7.17 Chrome/128.0.6613.36 Electron/32.0.1 Safari/537.36" version="24.7.17">
  <diagram name="Page-1" id="d6r6IG8TPvg3Rud0omXF">
    <mxGraphModel dx="1461" dy="206" grid="1" gridSize="10" guides="1" tooltips="1" connect="1" arrows="1" fold="1" page="1" pageScale="1" pageWidth="1169" pageHeight="827" math="0" shadow="0">
      <root>
        <mxCell id="0" />
        <mxCell id="1" parent="0" />
        <mxCell id="3_tqcAupVyAekN3fUpBM-2" value="&lt;font face=&quot;arial&quot; style=&quot;font-size: 16px;&quot;&gt;&lt;b style=&quot;font-size: 16px;&quot;&gt;Controller Node&lt;/b&gt;&lt;/font&gt;" style="text;html=1;align=left;verticalAlign=middle;resizable=0;points=[];autosize=1;strokeColor=none;fillColor=none;fontSize=12;fontColor=#1d2d3e;fontFamily=Helvetica;" vertex="1" parent="1">
          <mxGeometry x="148" y="1325" width="140" height="30" as="geometry" />
        </mxCell>
        <mxCell id="3_tqcAupVyAekN3fUpBM-3" value="&lt;font face=&quot;arial&quot; style=&quot;font-size: 16px;&quot;&gt;&lt;b style=&quot;font-size: 16px;&quot;&gt;Worker Nodes&lt;/b&gt;&lt;/font&gt;" style="text;html=1;align=left;verticalAlign=middle;resizable=0;points=[];autosize=1;strokeColor=none;fillColor=none;fontSize=12;fontColor=#1d2d3e;fontFamily=Helvetica;" vertex="1" parent="1">
          <mxGeometry x="481" y="955" width="130" height="30" as="geometry" />
        </mxCell>
        <mxCell id="3_tqcAupVyAekN3fUpBM-4" value="&lt;font face=&quot;arial&quot; style=&quot;font-size: 16px;&quot;&gt;&lt;b style=&quot;font-size: 16px;&quot;&gt;Target&lt;/b&gt;&lt;/font&gt;" style="text;html=1;align=left;verticalAlign=middle;resizable=0;points=[];autosize=1;strokeColor=none;fillColor=none;fontSize=12;fontColor=#1d2d3e;fontFamily=Helvetica;" vertex="1" parent="1">
          <mxGeometry x="923" y="955" width="70" height="30" as="geometry" />
        </mxCell>
        <mxCell id="3_tqcAupVyAekN3fUpBM-10" value="" style="group;strokeColor=none;" vertex="1" connectable="0" parent="1">
          <mxGeometry x="450" y="1006" width="193.84615384615384" height="120" as="geometry" />
        </mxCell>
        <mxCell id="3_tqcAupVyAekN3fUpBM-11" value="" style="rounded=1;whiteSpace=wrap;html=1;arcSize=24;absoluteArcSize=1;imageWidth=64;imageHeight=64;strokeWidth=1.5;" vertex="1" parent="3_tqcAupVyAekN3fUpBM-10">
          <mxGeometry width="190" height="120" as="geometry" />
        </mxCell>
        <mxCell id="3_tqcAupVyAekN3fUpBM-12" value="&lt;font color=&quot;#1d2d3e&quot; size=&quot;1&quot; face=&quot;arial&quot;&gt;&lt;b style=&quot;font-size: 14px;&quot;&gt;Docker Container&lt;/b&gt;&lt;/font&gt;&lt;div&gt;&lt;font color=&quot;#1d2d3e&quot; size=&quot;1&quot; face=&quot;arial&quot;&gt;&lt;span style=&quot;font-size: 14px;&quot;&gt;WestEurope (1.0.0.4)&lt;/span&gt;&lt;/font&gt;&lt;/div&gt;" style="text;html=1;align=left;verticalAlign=middle;resizable=0;points=[];autosize=1;strokeColor=none;fillColor=none;fontSize=12;fontColor=default;fontFamily=Helvetica;" vertex="1" parent="3_tqcAupVyAekN3fUpBM-10">
          <mxGeometry x="33.84615384615385" width="160" height="50" as="geometry" />
        </mxCell>
        <mxCell id="3_tqcAupVyAekN3fUpBM-13" value="&lt;b&gt;JMeter&lt;/b&gt;" style="rounded=1;whiteSpace=wrap;html=1;strokeColor=#0070F2;fillColor=#EBF8FF;arcSize=24;absoluteArcSize=1;imageWidth=64;imageHeight=64;strokeWidth=1.5;" vertex="1" parent="3_tqcAupVyAekN3fUpBM-10">
          <mxGeometry x="32.15384615384615" y="64.61538461538461" width="116.92307692307692" height="27.692307692307693" as="geometry" />
        </mxCell>
        <mxCell id="3_tqcAupVyAekN3fUpBM-14" value="" style="endArrow=none;html=1;strokeColor=#475e75;bendable=1;rounded=0;endFill=0;endSize=4;edgeStyle=entityRelationEdgeStyle;startArrow=none;startFill=0;startSize=4;jumpStyle=none;jumpSize=0;targetPerimeterSpacing=15;strokeWidth=1.5;entryX=0.993;entryY=0.416;entryDx=0;entryDy=0;entryPerimeter=0;" edge="1" parent="3_tqcAupVyAekN3fUpBM-10" target="3_tqcAupVyAekN3fUpBM-11">
          <mxGeometry width="50" height="50" relative="1" as="geometry">
            <mxPoint y="50" as="sourcePoint" />
            <mxPoint x="120" y="50" as="targetPoint" />
          </mxGeometry>
        </mxCell>
        <mxCell id="3_tqcAupVyAekN3fUpBM-15" value="" style="group" vertex="1" connectable="0" parent="1">
          <mxGeometry x="451" y="1182" width="193.84615384615384" height="120" as="geometry" />
        </mxCell>
        <mxCell id="3_tqcAupVyAekN3fUpBM-16" value="" style="rounded=1;whiteSpace=wrap;html=1;arcSize=24;absoluteArcSize=1;imageWidth=64;imageHeight=64;strokeWidth=1.5;" vertex="1" parent="3_tqcAupVyAekN3fUpBM-15">
          <mxGeometry width="190" height="120" as="geometry" />
        </mxCell>
        <mxCell id="3_tqcAupVyAekN3fUpBM-17" value="&lt;font color=&quot;#1d2d3e&quot; size=&quot;1&quot; face=&quot;arial&quot;&gt;&lt;b style=&quot;font-size: 14px;&quot;&gt;Docker Container&lt;/b&gt;&lt;/font&gt;&lt;div&gt;&lt;font color=&quot;#1d2d3e&quot; size=&quot;1&quot; face=&quot;arial&quot;&gt;&lt;span style=&quot;font-size: 14px;&quot;&gt;NorthEurope (1.0.0.5)&lt;/span&gt;&lt;/font&gt;&lt;/div&gt;" style="text;html=1;align=left;verticalAlign=middle;resizable=0;points=[];autosize=1;strokeColor=none;fillColor=none;fontSize=12;fontColor=default;fontFamily=Helvetica;" vertex="1" parent="3_tqcAupVyAekN3fUpBM-15">
          <mxGeometry x="33.84615384615385" width="160" height="50" as="geometry" />
        </mxCell>
        <mxCell id="3_tqcAupVyAekN3fUpBM-18" value="&lt;b&gt;JMeter&lt;/b&gt;" style="rounded=1;whiteSpace=wrap;html=1;strokeColor=#0070F2;fillColor=#EBF8FF;arcSize=24;absoluteArcSize=1;imageWidth=64;imageHeight=64;strokeWidth=1.5;" vertex="1" parent="3_tqcAupVyAekN3fUpBM-15">
          <mxGeometry x="32.15384615384615" y="64.61538461538461" width="116.92307692307692" height="27.692307692307693" as="geometry" />
        </mxCell>
        <mxCell id="3_tqcAupVyAekN3fUpBM-19" value="" style="endArrow=none;html=1;strokeColor=#475e75;bendable=1;rounded=0;endFill=0;endSize=4;edgeStyle=entityRelationEdgeStyle;startArrow=none;startFill=0;startSize=4;jumpStyle=none;jumpSize=0;targetPerimeterSpacing=15;strokeWidth=1.5;entryX=0.993;entryY=0.416;entryDx=0;entryDy=0;entryPerimeter=0;" edge="1" parent="3_tqcAupVyAekN3fUpBM-15" target="3_tqcAupVyAekN3fUpBM-16">
          <mxGeometry width="50" height="50" relative="1" as="geometry">
            <mxPoint y="50" as="sourcePoint" />
            <mxPoint x="120" y="50" as="targetPoint" />
          </mxGeometry>
        </mxCell>
        <mxCell id="3_tqcAupVyAekN3fUpBM-20" value="" style="group" vertex="1" connectable="0" parent="1">
          <mxGeometry x="450" y="1355" width="213.84615384615384" height="120" as="geometry" />
        </mxCell>
        <mxCell id="3_tqcAupVyAekN3fUpBM-21" value="" style="rounded=1;whiteSpace=wrap;html=1;arcSize=24;absoluteArcSize=1;imageWidth=64;imageHeight=64;strokeWidth=1.5;" vertex="1" parent="3_tqcAupVyAekN3fUpBM-20">
          <mxGeometry width="190" height="120" as="geometry" />
        </mxCell>
        <mxCell id="3_tqcAupVyAekN3fUpBM-22" value="&lt;font color=&quot;#1d2d3e&quot; size=&quot;1&quot; face=&quot;arial&quot;&gt;&lt;b style=&quot;font-size: 14px;&quot;&gt;Docker Container&lt;/b&gt;&lt;/font&gt;&lt;div&gt;&lt;font color=&quot;#1d2d3e&quot; size=&quot;1&quot; face=&quot;arial&quot;&gt;&lt;span style=&quot;font-size: 14px;&quot;&gt;SwedenCentral (1.0.0.6)&lt;/span&gt;&lt;/font&gt;&lt;/div&gt;" style="text;html=1;align=left;verticalAlign=middle;resizable=0;points=[];autosize=1;strokeColor=none;fillColor=none;fontSize=12;fontColor=default;fontFamily=Helvetica;" vertex="1" parent="3_tqcAupVyAekN3fUpBM-20">
          <mxGeometry x="33.84615384615385" width="180" height="50" as="geometry" />
        </mxCell>
        <mxCell id="3_tqcAupVyAekN3fUpBM-23" value="&lt;b&gt;JMeter&lt;/b&gt;" style="rounded=1;whiteSpace=wrap;html=1;strokeColor=#0070F2;fillColor=#EBF8FF;arcSize=24;absoluteArcSize=1;imageWidth=64;imageHeight=64;strokeWidth=1.5;" vertex="1" parent="3_tqcAupVyAekN3fUpBM-20">
          <mxGeometry x="32.15384615384615" y="64.61538461538461" width="116.92307692307692" height="27.692307692307693" as="geometry" />
        </mxCell>
        <mxCell id="3_tqcAupVyAekN3fUpBM-24" value="" style="endArrow=none;html=1;strokeColor=#475e75;bendable=1;rounded=0;endFill=0;endSize=4;edgeStyle=entityRelationEdgeStyle;startArrow=none;startFill=0;startSize=4;jumpStyle=none;jumpSize=0;targetPerimeterSpacing=15;strokeWidth=1.5;entryX=0.993;entryY=0.416;entryDx=0;entryDy=0;entryPerimeter=0;" edge="1" parent="3_tqcAupVyAekN3fUpBM-20" target="3_tqcAupVyAekN3fUpBM-21">
          <mxGeometry width="50" height="50" relative="1" as="geometry">
            <mxPoint y="50" as="sourcePoint" />
            <mxPoint x="120" y="50" as="targetPoint" />
          </mxGeometry>
        </mxCell>
        <mxCell id="3_tqcAupVyAekN3fUpBM-25" value="" style="rounded=1;whiteSpace=wrap;html=1;strokeColor=#0070F2;fillColor=#EBF8FF;arcSize=32;absoluteArcSize=1;strokeWidth=1.5;" vertex="1" parent="1">
          <mxGeometry x="78" y="1022" width="260" height="130" as="geometry" />
        </mxCell>
        <mxCell id="3_tqcAupVyAekN3fUpBM-26" value="BTP" style="image;image=img/lib/sap/SAP_Logo.svg;editableCssRules=.*;part=1;verticalLabelPosition=middle;labelBackgroundColor=none;verticalAlign=middle;imageAspect=0;labelPosition=right;align=left;fontSize=16;fontStyle=1;spacingLeft=0;fontColor=#002A86;spacing=0;" vertex="1" parent="3_tqcAupVyAekN3fUpBM-25">
          <mxGeometry width="37" height="19" relative="1" as="geometry">
            <mxPoint x="20" y="20" as="offset" />
          </mxGeometry>
        </mxCell>
        <mxCell id="3_tqcAupVyAekN3fUpBM-27" value="" style="rounded=1;whiteSpace=wrap;html=1;strokeColor=#0070F2;fillColor=#ffffff;arcSize=24;absoluteArcSize=1;imageWidth=64;imageHeight=64;strokeWidth=1.5;" vertex="1" parent="3_tqcAupVyAekN3fUpBM-25">
          <mxGeometry x="20" y="45.22" width="220" height="64.78" as="geometry" />
        </mxCell>
        <mxCell id="3_tqcAupVyAekN3fUpBM-28" value="&lt;font size=&quot;1&quot; face=&quot;arial&quot; style=&quot;&quot;&gt;&lt;span style=&quot;font-size: 12px;&quot;&gt;Kyma Runtime&lt;/span&gt;&lt;/font&gt;" style="text;html=1;align=left;verticalAlign=middle;resizable=0;points=[];autosize=1;strokeColor=none;fillColor=none;fontSize=12;fontColor=#1D2D3E;fontFamily=Helvetica;" vertex="1" parent="3_tqcAupVyAekN3fUpBM-25">
          <mxGeometry x="29" y="43.337047619047624" width="100" height="30" as="geometry" />
        </mxCell>
        <mxCell id="3_tqcAupVyAekN3fUpBM-29" value="Dashboard" style="rounded=1;whiteSpace=wrap;html=1;strokeColor=#475E75;fillColor=#F5F6F7;arcSize=24;absoluteArcSize=1;imageWidth=64;imageHeight=64;strokeWidth=1.5;" vertex="1" parent="3_tqcAupVyAekN3fUpBM-25">
          <mxGeometry x="50" y="71.94" width="160" height="28.06" as="geometry" />
        </mxCell>
        <mxCell id="3_tqcAupVyAekN3fUpBM-34" value="&lt;div style=&quot;&quot;&gt;&lt;font face=&quot;arial&quot; size=&quot;1&quot;&gt;Upload Result Data Sets&lt;/font&gt;&lt;/div&gt;" style="text;html=1;align=left;verticalAlign=middle;resizable=0;points=[];autosize=1;strokeColor=none;fillColor=none;fontSize=12;fontColor=#556B82;fontFamily=Helvetica;fontStyle=1" vertex="1" parent="1">
          <mxGeometry x="81" y="1159" width="130" height="30" as="geometry" />
        </mxCell>
        <mxCell id="3_tqcAupVyAekN3fUpBM-35" value="" style="endArrow=blockThin;html=1;strokeColor=#475E75;bendable=1;rounded=0;endFill=1;endSize=4;edgeStyle=entityRelationEdgeStyle;startArrow=blockThin;startFill=1;startSize=4;jumpStyle=none;jumpSize=0;targetPerimeterSpacing=15;strokeWidth=1.5;" edge="1" parent="1">
          <mxGeometry width="50" height="50" relative="1" as="geometry">
            <mxPoint x="301" y="1260" as="sourcePoint" />
            <mxPoint x="451" y="1260" as="targetPoint" />
            <Array as="points">
              <mxPoint x="381" y="1450" />
            </Array>
          </mxGeometry>
        </mxCell>
        <mxCell id="3_tqcAupVyAekN3fUpBM-36" value="&lt;div style=&quot;&quot;&gt;&lt;font size=&quot;1&quot; face=&quot;arial&quot;&gt;Remote Start&lt;/font&gt;&lt;/div&gt;" style="text;html=1;align=left;verticalAlign=middle;resizable=0;points=[];autosize=1;strokeColor=none;fillColor=none;fontSize=12;fontColor=#556B82;fontFamily=Helvetica;rotation=0;" vertex="1" parent="1">
          <mxGeometry x="302.85" y="1254.31" width="80" height="30" as="geometry" />
        </mxCell>
        <mxCell id="3_tqcAupVyAekN3fUpBM-37" style="edgeStyle=orthogonalEdgeStyle;rounded=0;orthogonalLoop=1;jettySize=auto;html=1;" edge="1" parent="1" source="3_tqcAupVyAekN3fUpBM-38">
          <mxGeometry relative="1" as="geometry">
            <mxPoint x="958" y="1195" as="targetPoint" />
          </mxGeometry>
        </mxCell>
        <mxCell id="3_tqcAupVyAekN3fUpBM-38" value="" style="rounded=1;whiteSpace=wrap;html=1;strokeColor=#0070F2;fillColor=#EBF8FF;arcSize=32;absoluteArcSize=1;strokeWidth=1.5;" vertex="1" parent="1">
          <mxGeometry x="808" y="1245" width="300" height="240" as="geometry" />
        </mxCell>
        <mxCell id="3_tqcAupVyAekN3fUpBM-39" value="BTP" style="image;image=img/lib/sap/SAP_Logo.svg;editableCssRules=.*;part=1;verticalLabelPosition=middle;labelBackgroundColor=none;verticalAlign=middle;imageAspect=0;labelPosition=right;align=left;fontSize=16;fontStyle=1;spacingLeft=0;fontColor=#002A86;spacing=0;" vertex="1" parent="3_tqcAupVyAekN3fUpBM-38">
          <mxGeometry width="37" height="19" relative="1" as="geometry">
            <mxPoint x="20" y="20" as="offset" />
          </mxGeometry>
        </mxCell>
        <mxCell id="3_tqcAupVyAekN3fUpBM-40" value="" style="rounded=1;whiteSpace=wrap;html=1;strokeColor=#0070F2;fillColor=#ffffff;arcSize=24;absoluteArcSize=1;imageWidth=64;imageHeight=64;strokeWidth=1.5;" vertex="1" parent="3_tqcAupVyAekN3fUpBM-38">
          <mxGeometry x="23.08" y="50" width="253.85" height="150" as="geometry" />
        </mxCell>
        <mxCell id="3_tqcAupVyAekN3fUpBM-41" value="&lt;font size=&quot;1&quot; face=&quot;arial&quot; style=&quot;&quot;&gt;&lt;span style=&quot;font-size: 12px;&quot;&gt;Cloud Foundry Runtime&lt;/span&gt;&lt;/font&gt;" style="text;html=1;align=left;verticalAlign=middle;resizable=0;points=[];autosize=1;strokeColor=none;fillColor=none;fontSize=12;fontColor=#1D2D3E;fontFamily=Helvetica;" vertex="1" parent="3_tqcAupVyAekN3fUpBM-38">
          <mxGeometry x="33.46153846153846" y="50.00685714285716" width="150" height="30" as="geometry" />
        </mxCell>
        <mxCell id="3_tqcAupVyAekN3fUpBM-42" value="" style="shape=mxgraph.sap.icon;labelPosition=center;verticalLabelPosition=bottom;align=center;verticalAlign=top;strokeWidth=1;strokeColor=#D5DADD;fillColor=#EDEFF0;gradientColor=#FCFCFC;gradientDirection=west;aspect=fixed;SAPIcon=SAP_BTP,_Cloud_Foundry_runtime" vertex="1" parent="3_tqcAupVyAekN3fUpBM-38">
          <mxGeometry x="230" y="120" width="30" height="30" as="geometry" />
        </mxCell>
        <mxCell id="3_tqcAupVyAekN3fUpBM-43" value="" style="shape=mxgraph.sap.icon;labelPosition=center;verticalLabelPosition=bottom;align=center;verticalAlign=top;strokeWidth=1;strokeColor=#D5DADD;fillColor=#EDEFF0;gradientColor=#FCFCFC;gradientDirection=west;aspect=fixed;SAPIcon=SAP_BTP,_Cloud_Foundry_runtime" vertex="1" parent="3_tqcAupVyAekN3fUpBM-38">
          <mxGeometry x="146" y="122" width="30" height="30" as="geometry" />
        </mxCell>
        <mxCell id="3_tqcAupVyAekN3fUpBM-44" value="" style="shape=mxgraph.sap.icon;labelPosition=center;verticalLabelPosition=bottom;align=center;verticalAlign=top;strokeWidth=1;strokeColor=#D5DADD;fillColor=#EDEFF0;gradientColor=#FCFCFC;gradientDirection=west;aspect=fixed;SAPIcon=SAP_Integration_Suite_-_API_Managment" vertex="1" parent="3_tqcAupVyAekN3fUpBM-38">
          <mxGeometry x="60" y="122" width="30" height="30" as="geometry" />
        </mxCell>
        <mxCell id="3_tqcAupVyAekN3fUpBM-45" value="&lt;font face=&quot;arial&quot; style=&quot;font-size: 9px;&quot;&gt;APIM&lt;/font&gt;" style="text;html=1;align=left;verticalAlign=middle;resizable=0;points=[];autosize=1;strokeColor=none;fillColor=none;fontSize=12;fontColor=#1D2D3E;fontFamily=Helvetica;" vertex="1" parent="3_tqcAupVyAekN3fUpBM-38">
          <mxGeometry x="62.001538461538445" y="146.99685714285715" width="50" height="30" as="geometry" />
        </mxCell>
        <mxCell id="3_tqcAupVyAekN3fUpBM-46" value="&lt;span style=&quot;font-family: arial; font-size: 9px;&quot;&gt;API Router&lt;/span&gt;" style="text;html=1;align=left;verticalAlign=middle;resizable=0;points=[];autosize=1;strokeColor=none;fillColor=none;fontSize=12;fontColor=#1D2D3E;fontFamily=Helvetica;" vertex="1" parent="3_tqcAupVyAekN3fUpBM-38">
          <mxGeometry x="136.00153846153842" y="146.99685714285715" width="70" height="30" as="geometry" />
        </mxCell>
        <mxCell id="3_tqcAupVyAekN3fUpBM-47" value="&lt;span style=&quot;font-family: arial; font-size: 9px;&quot;&gt;CAP&lt;/span&gt;" style="text;html=1;align=left;verticalAlign=middle;resizable=0;points=[];autosize=1;strokeColor=none;fillColor=none;fontSize=12;fontColor=#1D2D3E;fontFamily=Helvetica;" vertex="1" parent="3_tqcAupVyAekN3fUpBM-38">
          <mxGeometry x="234.93153846153854" y="146.99685714285715" width="40" height="30" as="geometry" />
        </mxCell>
        <mxCell id="3_tqcAupVyAekN3fUpBM-48" value="" style="shape=mxgraph.sap.icon;labelPosition=center;verticalLabelPosition=bottom;align=center;verticalAlign=top;strokeWidth=1;strokeColor=#D5DADD;fillColor=#EDEFF0;gradientColor=#FCFCFC;gradientDirection=west;aspect=fixed;SAPIcon=SAP_Connectivity_Service" vertex="1" parent="3_tqcAupVyAekN3fUpBM-38">
          <mxGeometry x="145" y="75.01" width="29.99" height="29.99" as="geometry" />
        </mxCell>
        <mxCell id="3_tqcAupVyAekN3fUpBM-49" style="edgeStyle=orthogonalEdgeStyle;rounded=0;orthogonalLoop=1;jettySize=auto;html=1;entryX=1;entryY=0.5;entryDx=0;entryDy=0;entryPerimeter=0;exitX=0.491;exitY=-0.013;exitDx=0;exitDy=0;exitPerimeter=0;" edge="1" parent="3_tqcAupVyAekN3fUpBM-38" source="3_tqcAupVyAekN3fUpBM-42" target="3_tqcAupVyAekN3fUpBM-48">
          <mxGeometry relative="1" as="geometry" />
        </mxCell>
        <mxCell id="3_tqcAupVyAekN3fUpBM-50" style="edgeStyle=orthogonalEdgeStyle;rounded=0;orthogonalLoop=1;jettySize=auto;html=1;entryX=-0.027;entryY=0.514;entryDx=0;entryDy=0;entryPerimeter=0;exitX=0.41;exitY=-0.025;exitDx=0;exitDy=0;exitPerimeter=0;" edge="1" parent="3_tqcAupVyAekN3fUpBM-38" source="3_tqcAupVyAekN3fUpBM-44" target="3_tqcAupVyAekN3fUpBM-48">
          <mxGeometry relative="1" as="geometry" />
        </mxCell>
        <mxCell id="3_tqcAupVyAekN3fUpBM-51" style="edgeStyle=orthogonalEdgeStyle;rounded=0;orthogonalLoop=1;jettySize=auto;html=1;entryX=0.534;entryY=1.167;entryDx=0;entryDy=0;entryPerimeter=0;" edge="1" parent="3_tqcAupVyAekN3fUpBM-38">
          <mxGeometry relative="1" as="geometry">
            <mxPoint x="160.99999999999977" y="117" as="sourcePoint" />
            <mxPoint x="161.01465999999982" y="105.00832999999989" as="targetPoint" />
          </mxGeometry>
        </mxCell>
        <mxCell id="3_tqcAupVyAekN3fUpBM-52" style="edgeStyle=orthogonalEdgeStyle;rounded=0;orthogonalLoop=1;jettySize=auto;html=1;entryX=0.006;entryY=0.79;entryDx=0;entryDy=0;entryPerimeter=0;" edge="1" parent="1" target="3_tqcAupVyAekN3fUpBM-38">
          <mxGeometry relative="1" as="geometry">
            <mxPoint x="638" y="1435" as="sourcePoint" />
          </mxGeometry>
        </mxCell>
        <mxCell id="3_tqcAupVyAekN3fUpBM-53" value="" style="endArrow=blockThin;html=1;strokeColor=#475e75;bendable=1;rounded=0;endFill=1;endSize=4;strokeWidth=1.5;startSize=4;startArrow=none;startFill=0;" edge="1" parent="1">
          <mxGeometry width="50" height="50" relative="1" as="geometry">
            <mxPoint x="368" y="1436" as="sourcePoint" />
            <mxPoint x="450" y="1435.58" as="targetPoint" />
            <Array as="points" />
          </mxGeometry>
        </mxCell>
        <mxCell id="3_tqcAupVyAekN3fUpBM-54" value="" style="endArrow=blockThin;html=1;strokeColor=#475e75;bendable=1;rounded=0;endFill=1;endSize=4;strokeWidth=1.5;startSize=4;startArrow=none;startFill=0;" edge="1" parent="1">
          <mxGeometry width="50" height="50" relative="1" as="geometry">
            <mxPoint x="369" y="1075.4199999999998" as="sourcePoint" />
            <mxPoint x="451" y="1074.9999999999998" as="targetPoint" />
            <Array as="points" />
          </mxGeometry>
        </mxCell>
        <mxCell id="3_tqcAupVyAekN3fUpBM-55" value="" style="endArrow=none;html=1;rounded=0;" edge="1" parent="1">
          <mxGeometry width="50" height="50" relative="1" as="geometry">
            <mxPoint x="368" y="1435" as="sourcePoint" />
            <mxPoint x="368" y="1075" as="targetPoint" />
          </mxGeometry>
        </mxCell>
        <mxCell id="3_tqcAupVyAekN3fUpBM-56" value="" style="endArrow=none;html=1;rounded=0;" edge="1" parent="1">
          <mxGeometry width="50" height="50" relative="1" as="geometry">
            <mxPoint x="737.5799999999999" y="1435" as="sourcePoint" />
            <mxPoint x="737.5799999999999" y="1075" as="targetPoint" />
          </mxGeometry>
        </mxCell>
        <mxCell id="3_tqcAupVyAekN3fUpBM-57" value="" style="endArrow=none;html=1;strokeColor=#475e75;bendable=1;rounded=0;endFill=0;endSize=4;edgeStyle=entityRelationEdgeStyle;startArrow=none;startFill=0;startSize=4;jumpStyle=none;jumpSize=0;targetPerimeterSpacing=15;strokeWidth=1;exitX=0.997;exitY=0.582;exitDx=0;exitDy=0;exitPerimeter=0;" edge="1" parent="1" source="3_tqcAupVyAekN3fUpBM-11">
          <mxGeometry width="50" height="50" relative="1" as="geometry">
            <mxPoint x="648" y="1075" as="sourcePoint" />
            <mxPoint x="738" y="1075" as="targetPoint" />
          </mxGeometry>
        </mxCell>
        <mxCell id="3_tqcAupVyAekN3fUpBM-58" value="" style="endArrow=none;html=1;strokeColor=#475e75;bendable=1;rounded=0;endFill=0;endSize=4;edgeStyle=entityRelationEdgeStyle;startArrow=none;startFill=0;startSize=4;jumpStyle=none;jumpSize=0;targetPerimeterSpacing=15;strokeWidth=1;" edge="1" parent="1">
          <mxGeometry width="50" height="50" relative="1" as="geometry">
            <mxPoint x="641" y="1245" as="sourcePoint" />
            <mxPoint x="738" y="1245" as="targetPoint" />
          </mxGeometry>
        </mxCell>
        <mxCell id="3_tqcAupVyAekN3fUpBM-59" value="" style="group" vertex="1" connectable="0" parent="1">
          <mxGeometry x="809" y="1015" width="300" height="180" as="geometry" />
        </mxCell>
        <mxCell id="3_tqcAupVyAekN3fUpBM-60" value="" style="rounded=1;whiteSpace=wrap;html=1;strokeColor=#0070F2;strokeWidth=1.5;arcSize=16;fillColor=#FFFFFF;perimeterSpacing=0;absoluteArcSize=1;" vertex="1" parent="3_tqcAupVyAekN3fUpBM-59">
          <mxGeometry width="297.9165314467451" height="180" as="geometry" />
        </mxCell>
        <mxCell id="3_tqcAupVyAekN3fUpBM-61" value="&lt;p style=&quot;line-height: 110%;&quot;&gt;&lt;font face=&quot;arial&quot;&gt;&lt;span style=&quot;font-size: 16px;&quot;&gt;&lt;b&gt;SAP S/4HANA Cloud, &lt;br&gt;Private Edition&lt;/b&gt;&lt;/span&gt;&lt;/font&gt;&lt;/p&gt;" style="text;html=1;align=left;verticalAlign=middle;resizable=0;points=[];autosize=1;strokeColor=none;fillColor=none;fontSize=12;fontColor=#1d2d3e;fontFamily=Helvetica;" vertex="1" parent="3_tqcAupVyAekN3fUpBM-59">
          <mxGeometry x="48.82080353086248" y="-3.517879992230263" width="180" height="70" as="geometry" />
        </mxCell>
        <mxCell id="3_tqcAupVyAekN3fUpBM-62" value="" style="shape=image;verticalLabelPosition=bottom;labelBackgroundColor=default;verticalAlign=top;aspect=fixed;imageAspect=0;image=data:image/svg+xml,PHN2ZyB4bWxucz0iaHR0cDovL3d3dy53My5vcmcvMjAwMC9zdmciIGZpbGw9Im5vbmUiIHZpZXdCb3g9IjAgMCAxNiAxNyIgaGVpZ2h0PSIxNyIgd2lkdGg9IjE2Ij4mI3hhOzxwYXRoIGZpbGw9InVybCgjcGFpbnQwX2xpbmVhcl83MjRfMTIpIiBkPSJNMTQuMzMzNSA1LjgzNDk0QzE0LjU4MzUgNi4wODQ5NCAxNC43ODE0IDYuMzc2NjEgMTQuOTI3MiA2LjcwOTk0QzE1LjA5MzkgNy4wMjI0NCAxNS4xNzcyIDcuMzY2MTkgMTUuMTc3MiA3Ljc0MTE5VjE0LjQyODdDMTUuMTc3MiAxNS4xMzcgMTQuOTM3NiAxNS43MjA0IDE0LjQ1ODUgMTYuMTc4N0MxMy45NzkzIDE2LjY1NzkgMTMuMzg1NSAxNi44OTc1IDEyLjY3NzIgMTYuODk3NUgyLjc3MDk0QzIuMDgzNDQgMTYuODk3NSAxLjUwMDExIDE2LjY1NzkgMS4wMjA5NCAxNi4xNzg3QzAuNTQxNzY4IDE1LjcyMDQgMC4zMDIxODUgMTUuMTM3IDAuMzAyMTg1IDE0LjQyODdWNy43NDExOUMwLjMwMjE4NSA2Ljk0OTUyIDAuNTgzNDM1IDYuMzE0MTEgMS4xNDU5NCA1LjgzNDk0TDYuMDgzNDQgMS41NTM2OUM2LjU4MzQ0IDEuMTM3MDIgNy4xNDU5NCAwLjkyODY4OCA3Ljc3MDk0IDAuOTI4Njg4QzguMzk1OTQgMC45Mjg2ODggOC45Mzc2MSAxLjEzNzAyIDkuMzk1OTQgMS41NTM2OUwxNC4zMzM1IDUuODM0OTRaTTguOTg5NjkgMTAuMzAzN0g2LjQ4OTY5VjE1LjI3MjVIOC45ODk2OVYxMC4zMDM3Wk0xMy40MjcyIDcuNzQxMTlDMTMuNDI3MiA3LjQ3MDM2IDEzLjM0MzkgNy4yNTE2MSAxMy4xNzcyIDcuMDg0OTRMOC4yMzk2OSAyLjgwMzY5QzcuODg1NTIgMi41MzI4NiA3LjUyMDk0IDIuNTMyODYgNy4xNDU5NCAyLjgwMzY5TDIuMjA4NDQgNy4wODQ5NEMyLjA0MTc3IDcuMjUxNjEgMS45NTg0NCA3LjQ3MDM2IDEuOTU4NDQgNy43NDExOVYxNC40Mjg3QzEuOTU4NDQgMTQuNjc4NyAyLjAzMTM2IDE0Ljg4NyAyLjE3NzE5IDE1LjA1MzdDMi4zNDM4NiAxNS4xOTk1IDIuNTQxNzcgMTUuMjcyNSAyLjc3MDk0IDE1LjI3MjVINC44MzM0NFYxMC4zMDM3QzQuODMzNDQgOS44NDUzNiA0Ljk4OTY5IDkuNDU5OTQgNS4zMDIxOSA5LjE0NzQ0QzUuNjM1NTIgOC44MTQxMSA2LjAzMTM2IDguNjQ3NDQgNi40ODk2OSA4LjY0NzQ0SDguOTg5NjlDOS40NDgwMiA4LjY0NzQ0IDkuODMzNDkgOC44MTQxMSAxMC4xNDU5IDkuMTQ3NDRDMTAuNDU4NSA5LjQ1OTk0IDEwLjYxNDcgOS44NDUzNiAxMC42MTQ3IDEwLjMwMzdWMTUuMjcyNUgxMi42NzcyQzEyLjkyNzIgMTUuMjcyNSAxMy4xMjUxIDE1LjE5OTUgMTMuMjcwOSAxNS4wNTM3QzEzLjQzNzYgMTQuODg3IDEzLjUyMDkgMTQuNjc4NyAxMy41MjA5IDE0LjQyODdMMTMuNDI3MiA3Ljc0MTE5WiIvPiYjeGE7PGRlZnM+JiN4YTs8bGluZWFyR3JhZGllbnQgZ3JhZGllbnRVbml0cz0idXNlclNwYWNlT25Vc2UiIHkyPSI5Ljg1NDkiIHgyPSIxNS44MTkzIiB5MT0iMi40MzA4NCIgeDE9IjIuMjI0NjQiIGlkPSJwYWludDBfbGluZWFyXzcyNF8xMiI+JiN4YTs8c3RvcCBzdG9wLWNvbG9yPSIjMjM5NUZGIi8+JiN4YTs8c3RvcCBzdG9wLWNvbG9yPSIjMDA1N0QyIiBvZmZzZXQ9IjEiLz4mI3hhOzwvbGluZWFyR3JhZGllbnQ+JiN4YTs8L2RlZnM+JiN4YTs8L3N2Zz4=;strokeWidth=1.5;" vertex="1" parent="3_tqcAupVyAekN3fUpBM-59">
          <mxGeometry x="17.310313493866186" y="9.749137145333421" width="31.508015957208382" height="33.46830223072211" as="geometry" />
        </mxCell>
        <mxCell id="3_tqcAupVyAekN3fUpBM-63" value="&lt;span style=&quot;font-family: Helvetica; font-style: normal; font-variant-ligatures: normal; font-variant-caps: normal; letter-spacing: normal; orphans: 2; text-indent: 0px; text-transform: none; widows: 2; word-spacing: 0px; -webkit-text-stroke-width: 0px; text-decoration-thickness: initial; text-decoration-style: initial; text-decoration-color: initial; float: none; display: inline !important;&quot;&gt;&lt;font color=&quot;#556b82&quot; style=&quot;font-size: 11px;&quot;&gt;Cloud Connector&lt;/font&gt;&lt;/span&gt;" style="text;whiteSpace=wrap;html=1;align=left;" vertex="1" parent="3_tqcAupVyAekN3fUpBM-59">
          <mxGeometry x="166.66" y="147.73" width="109.34" height="33.27" as="geometry" />
        </mxCell>
        <mxCell id="3_tqcAupVyAekN3fUpBM-64" value="" style="shape=image;verticalLabelPosition=bottom;labelBackgroundColor=default;verticalAlign=top;aspect=fixed;imageAspect=0;image=data:image/svg+xml,PHN2ZyB4bWxucz0iaHR0cDovL3d3dy53My5vcmcvMjAwMC9zdmciIGZpbGw9Im5vbmUiIHZpZXdCb3g9IjAgMCAxNiAxNiIgaGVpZ2h0PSIxNiIgd2lkdGg9IjE2Ij4mI3hhOzxjaXJjbGUgc3Ryb2tlLXdpZHRoPSIwLjI4NTcwOCIgc3Ryb2tlPSIjRDVEQUREIiBmaWxsPSJ1cmwoI3BhaW50MF9saW5lYXJfMzg5MF8yMTUzNSkiIHI9IjcuODU2OTYiIGN5PSI3Ljk5NzM4IiBjeD0iNy45OTczOCIvPiYjeGE7PGcgY2xpcC1wYXRoPSJ1cmwoI2NsaXAwXzM4OTBfMjE1MzUpIj4mI3hhOzxwYXRoIHN0cm9rZS13aWR0aD0iMC43NSIgc3Ryb2tlPSIjRjRGNEY0IiBmaWxsPSJ1cmwoI3BhaW50MV9saW5lYXJfMzg5MF8yMTUzNSkiIGQ9Ik03LjYwNDA4IDguODk4NjRMNy43NTczMSA5LjA2NDA2TDcuOTc1MjcgOS4wMDYyOUM4LjEzMzMzIDguOTY0MzkgOC4yNjc1NiA4Ljg3ODU0IDguMzc4MjkgOC43Njc4MUM4LjU0MjcxIDguNjAzMzkgOC42NDQzNyA4LjM5NDE0IDguNjQ0MzcgOC4xNTEwOEM4LjY0NDM3IDguMTA5MzggOC42NDEzOCA4LjA2ODY4IDguNjM1NTkgOC4wMjkwMkM4LjY3NTI1IDguMDM0ODEgOC43MTU5NSA4LjAzNzgxIDguNzU3NjYgOC4wMzc4MUM5LjAwMDcxIDguMDM3ODEgOS4yMDk5NiA3LjkzNjE1IDkuMzc0MzggNy43NzE3MkM5LjUzODgxIDcuNjA3MyA5LjY0MDQ3IDcuMzk4MDUgOS42NDA0NyA3LjE1NDk5QzkuNjQwNDcgNi45MTE5NCA5LjUzODgxIDYuNzAyNjkgOS4zNzQzOCA2LjUzODI3TDkuMzc0NCA2LjUzODI1TDkuMzcxNDUgNi41MzUzN0w4Ljc0NDA0IDUuOTIxNkw4Ljg4NjEgNS43Nzk1NEw4LjY1MDQgNS41NDM4NEw4Ljg4NjEgNS43Nzk1NEM5LjA0ODM3IDUuNjE3MjcgOS4xMzI2NiA1LjQxMDg4IDkuMTMyNjYgNS4xODIzNUM5LjEzMjY2IDQuOTUxNzcgOS4wNTU3IDQuNzM1MjIgOC44ODYxIDQuNTY1NjJMOC40MzY4OCA0LjExNjRDNy45OTcyNiAzLjY3Njc4IDcuNDY4MjggMy40MzI2NCA2Ljg2MjggMy40MDE1OUM2LjM3NjY4IDMuMzc2NjcgNS45MjcwNyAzLjQ4OTYgNS41MjI0NSAzLjczNTI3TDQuNTA1ODcgMi42OTIxM0w0LjUwNTg5IDIuNjkyMTFMNC41MDI0NyAyLjY4ODY5QzQuMzM4MDQgMi41MjQyNyA0LjEyODc5IDIuNDIyNjEgMy44ODU3NCAyLjQyMjYxQzMuNjQ1MDUgMi40MjI2MSAzLjQ0Mzk4IDIuNTMzMjYgMy4yODg1NSAyLjY4ODY5QzMuMTI0MTIgMi44NTMxMiAzLjAyMjQ2IDMuMDYyMzcgMy4wMjI0NiAzLjMwNTQyQzMuMDIyNDYgMy41NDc1NCAzLjEyMzM0IDMuNzU2MTIgMy4yODY2NiAzLjkyMDI1TDQuMzE1MTYgNC45NzU2MkM0LjA4NjggNS4zNzg2NSAzLjk4MzE5IDUuODIxMjMgNC4wMDgxNyA2LjI5NThMNC4wMDgyIDYuMjk2MzNDNC4wMzk3OCA2Ljg4MDU0IDQuMjg3NTEgNy4zOTQ4NyA0LjcyMjk2IDcuODMwMzJMNC43MjI4OSA3LjgzMDM4TDQuNzI4OTEgNy44MzYxNEw1LjEgOC4xOTEwOUw1LjI1NzI4IDguMzQxNTNMNS40NjU5MiA4LjI3OTU5QzUuNjU0MzUgOC4yMjM2NiA1Ljg0OTI2IDguMTk1MTkgNi4wNDg5OCA4LjE5NTE5QzYuNDgxMzMgOC4xOTUxOSA2Ljg4MTkyIDguMzI4NjUgNy4yMzY5NCA4LjU3ODEyQzcuMzcyNTUgOC42NzM0MiA3LjQ5NDc5IDguNzgwNjYgNy42MDQwOCA4Ljg5ODY0WiIvPiYjeGE7PHBhdGggc3Ryb2tlLXdpZHRoPSIwLjc1IiBzdHJva2U9IiNGNEY0RjQiIGZpbGw9InVybCgjcGFpbnQyX2xpbmVhcl8zODkwXzIxNTM1KSIgZD0iTTkuNzYyODkgMTIuMDk4MkMxMC4yNTMgMTIuMTEwOCAxMC43MDMyIDExLjk3OSAxMS4xMDYgMTEuNzEyMkwxMi4yNjEyIDEyLjg2NzRDMTIuNDE2NyAxMy4wMjI5IDEyLjYxNzcgMTMuMTMzNSAxMi44NTg0IDEzLjEzMzVDMTMuMTAxNSAxMy4xMzM1IDEzLjMxMDcgMTMuMDMxOSAxMy40NzUyIDEyLjg2NzRDMTMuNjM5NiAxMi43MDMgMTMuNzQxMiAxMi40OTM4IDEzLjc0MTIgMTIuMjUwN0MxMy43NDEyIDEyLjAxMDUgMTMuNjMxMSAxMS44MDk4IDEzLjQ3NjEgMTEuNjU0NUwxMi4zMTMxIDEwLjQ3NTFDMTIuNTU3IDEwLjA4NjEgMTIuNjcxNCA5LjY1NDcxIDEyLjY0NzIgOS4xODg4QzEyLjYzMDIgOC41OTIxNiAxMi4zOTAxIDguMDY4NDcgMTEuOTUxNyA3LjYzMDFMMTEuNTAyNSA3LjE4MDg4QzExLjMzODEgNy4wMTY0NSAxMS4xMjg4IDYuOTE0NzkgMTAuODg1OCA2LjkxNDc5QzEwLjY0MjcgNi45MTQ3OSAxMC40MzM1IDcuMDE2NDUgMTAuMjY5MSA3LjE4MDg4TDguNDUxMTQgOC45OTg3OUw4LjE0NjM1IDkuMzAzNThMOC40OTAzOSA5LjU2MzI2QzguNjE1OCA5LjY1NzkzIDguNzI5MTYgOS43Njc5MyA4LjgyOTcyIDkuODkyMjlMOC44Mjk2OSA5Ljg5MjMyTDguODMzMiA5Ljg5NjU0QzguOTkxMiAxMC4wODYyIDkuMTExMDYgMTAuMzAxIDkuMTk1MzIgMTAuNTM1QzkuMjg0MDQgMTAuNzgxNSA5LjMyNTQ4IDExLjA0MDIgOS4zMjU0OCAxMS4zMDZDOS4zMjU0OCAxMS40MjU4IDkuMzE2ODQgMTEuNTQzOSA5LjI5OTQzIDExLjY2MDFMOS4yNDEwOSAxMi4wNDk3TDkuNjMzMDMgMTIuMDg4OEM5LjY3MjkgMTIuMDkyOCA5LjcxMjk5IDEyLjA5NTggOS43NTMzIDEyLjA5NzlMOS43NTMyOSAxMi4wOThMOS43NjI4OSAxMi4wOTgyWiIvPiYjeGE7PHBhdGggZmlsbD0idXJsKCNwYWludDNfbGluZWFyXzM4OTBfMjE1MzUpIiBkPSJNNC41MjY0NSAxMi43OTc3SDcuMzU0MTFDNy41NDA1NSAxMi43OTc3IDcuNzE2NjMgMTIuNzU5NyA3Ljg4MjM1IDEyLjY4MzdDOC4wNDgwOCAxMi42MDc4IDguMTg5NjMgMTIuNTA0MiA4LjMwNzAyIDEyLjM3M0M4LjQzMTMxIDEyLjIzNDkgOC41Mjc5OSAxMi4wNzYxIDguNTk3MDQgMTEuODk2NkM4LjY2NjA5IDExLjcxMDEgOC43MDA2MSAxMS41MTMzIDguNzAwNjEgMTEuMzA2MkM4LjcwMDYxIDExLjEwNTkgOC42Njk1NCAxMC45MTk1IDguNjA3NCAxMC43NDY4QzguNTQ1MjUgMTAuNTc0MiA4LjQ1ODkzIDEwLjQyMjMgOC4zNDg0NSAxMC4yOTExQzguMjM3OTcgMTAuMTUzIDguMTA2NzcgMTAuMDQyNSA3Ljk1NDg2IDkuOTU5NjZDNy44MDI5NSA5Ljg3NjggNy42NDA2NyA5LjgyODQ2IDcuNDY4MDUgOS44MTQ2NUM3LjMyOTk0IDkuNTEwODMgNy4xMzMxNSA5LjI2OTE1IDYuODc3NjYgOS4wODk2MUM2LjYyMjE3IDguOTEwMDggNi4zNDU5NiA4LjgyMDMxIDYuMDQ5MDQgOC44MjAzMUM1Ljg1NTY5IDguODIwMzEgNS42NjkyNSA4Ljg1ODI5IDUuNDg5NzIgOC45MzQyNUM1LjMxNzA5IDkuMDEwMiA1LjE2MTczIDkuMTEzNzggNS4wMjM2MiA5LjI0NDk4QzQuODg1NTIgOS4zNzYxOCA0Ljc3MTU5IDkuNTM1IDQuNjgxODIgOS43MjE0M0M0LjU5MjA1IDkuOTAwOTcgNC41Mjk5MSAxMC4wOTQzIDQuNDk1MzggMTAuMzAxNUM0LjM0MzQ3IDEwLjMwMTUgNC4xOTg0NiAxMC4zMzYgNC4wNjAzNiAxMC40MDVDMy45MjkxNiAxMC40NjcyIDMuODE1MjIgMTAuNTU3IDMuNzE4NTUgMTAuNjc0M0MzLjYyMTg4IDEwLjc4NDggMy41NDI0NyAxMC45MTYgMy40ODAzMiAxMS4wNjc5QzMuNDI1MDggMTEuMjE5OSAzLjM5NzQ2IDExLjM3ODcgMy4zOTc0NiAxMS41NDQ0QzMuMzk3NDYgMTEuNzE3IDMuNDI1MDggMTEuODc5MyAzLjQ4MDMyIDEyLjAzMTJDMy41NDI0NyAxMi4xODMxIDMuNjI1MzMgMTIuMzE3OCAzLjcyODkxIDEyLjQzNTJDMy44MzI0OSAxMi41NDU2IDMuOTUzMzMgMTIuNjM1NCA0LjA5MTQzIDEyLjcwNDVDNC4yMjk1MyAxMi43NjY2IDQuMzc0NTQgMTIuNzk3NyA0LjUyNjQ1IDEyLjc5NzdaIi8+JiN4YTs8L2c+JiN4YTs8ZGVmcz4mI3hhOzxsaW5lYXJHcmFkaWVudCBncmFkaWVudFVuaXRzPSJ1c2VyU3BhY2VPblVzZSIgeTI9IjE0Ljc0NTMiIHgyPSIxMy42ODU0IiB5MT0iMi4yNjg0NSIgeDE9IjEuNDQ4NDgiIGlkPSJwYWludDBfbGluZWFyXzM4OTBfMjE1MzUiPiYjeGE7PHN0b3Agc3RvcC1jb2xvcj0id2hpdGUiLz4mI3hhOzxzdG9wIHN0b3AtY29sb3I9IiNFQUVDRUUiIG9mZnNldD0iMSIvPiYjeGE7PC9saW5lYXJHcmFkaWVudD4mI3hhOzxsaW5lYXJHcmFkaWVudCBncmFkaWVudFVuaXRzPSJ1c2VyU3BhY2VPblVzZSIgeTI9IjcuNzgyMDIiIHgyPSI4LjM3MDU1IiB5MT0iMy42NzE4NyIgeDE9IjQuMjc3MSIgaWQ9InBhaW50MV9saW5lYXJfMzg5MF8yMTUzNSI+JiN4YTs8c3RvcCBzdG9wLWNvbG9yPSIjMDE5NUZGIi8+JiN4YTs8c3RvcCBzdG9wLWNvbG9yPSIjMTE0N0U5IiBvZmZzZXQ9IjAuOTkxMDI4Ii8+JiN4YTs8L2xpbmVhckdyYWRpZW50PiYjeGE7PGxpbmVhckdyYWRpZW50IGdyYWRpZW50VW5pdHM9InVzZXJTcGFjZU9uVXNlIiB5Mj0iMTEuMzIyNCIgeDI9IjEzLjE5MjkiIHkxPSI4LjEwNzYxIiB4MT0iOS40MTMzNSIgaWQ9InBhaW50Ml9saW5lYXJfMzg5MF8yMTUzNSI+JiN4YTs8c3RvcCBzdG9wLWNvbG9yPSIjMDE5NUZGIi8+JiN4YTs8c3RvcCBzdG9wLWNvbG9yPSIjMTE0N0U5IiBvZmZzZXQ9IjAuOTkxMDI4Ii8+JiN4YTs8L2xpbmVhckdyYWRpZW50PiYjeGE7PGxpbmVhckdyYWRpZW50IGdyYWRpZW50VW5pdHM9InVzZXJTcGFjZU9uVXNlIiB5Mj0iMTIuOTc5NCIgeDI9IjYuODUwNDgiIHkxPSI5LjQwNTQ3IiB4MT0iNC4xODE1IiBpZD0icGFpbnQzX2xpbmVhcl8zODkwXzIxNTM1Ij4mI3hhOzxzdG9wIHN0b3AtY29sb3I9IiMxMzQ4RkYiLz4mI3hhOzxzdG9wIHN0b3AtY29sb3I9IiMwNjIzOEQiIG9mZnNldD0iMSIvPiYjeGE7PC9saW5lYXJHcmFkaWVudD4mI3hhOzxjbGlwUGF0aCBpZD0iY2xpcDBfMzg5MF8yMTUzNSI+JiN4YTs8cmVjdCB0cmFuc2Zvcm09InRyYW5zbGF0ZSgzLjM5NzQ2IDIuNzk3NjEpIiBmaWxsPSJ3aGl0ZSIgaGVpZ2h0PSIxMCIgd2lkdGg9IjEwIi8+JiN4YTs8L2NsaXBQYXRoPiYjeGE7PC9kZWZzPiYjeGE7PC9zdmc+;points=[[0,0,0,0,0],[0,0.25,0,0,0],[0,0.5,0,0,0],[0,0.75,0,0,0],[0.25,0,0,0,0],[0.5,0,0,0,0],[0.75,0,0,0,0],[1,0,0,0,0],[1,0.25,0,0,0],[1,0.5,0,0,0],[1,0.75,0,0,0]];" vertex="1" parent="3_tqcAupVyAekN3fUpBM-59">
          <mxGeometry x="129.99930291425966" y="139.96668957029112" width="38.24948826368241" height="38.24948826368241" as="geometry" />
        </mxCell>
        <mxCell id="3_tqcAupVyAekN3fUpBM-65" value="SAP Gateway" style="rounded=1;whiteSpace=wrap;html=1;strokeColor=#475E75;fillColor=#F5F6F7;arcSize=24;absoluteArcSize=1;imageWidth=64;imageHeight=64;strokeWidth=1.5;dashed=1;dashPattern=1 2;" vertex="1" parent="3_tqcAupVyAekN3fUpBM-59">
          <mxGeometry x="40" y="70" width="230" height="40" as="geometry" />
        </mxCell>
        <mxCell id="3_tqcAupVyAekN3fUpBM-66" style="edgeStyle=orthogonalEdgeStyle;rounded=0;orthogonalLoop=1;jettySize=auto;html=1;" edge="1" parent="3_tqcAupVyAekN3fUpBM-59">
          <mxGeometry relative="1" as="geometry">
            <mxPoint x="148.99" y="110" as="targetPoint" />
            <mxPoint x="149" y="140" as="sourcePoint" />
          </mxGeometry>
        </mxCell>
        <mxCell id="3_tqcAupVyAekN3fUpBM-67" value="" style="endArrow=blockThin;html=1;strokeColor=#CC6600;bendable=1;rounded=0;endFill=1;endSize=4;edgeStyle=entityRelationEdgeStyle;startArrow=none;startFill=0;startSize=4;jumpStyle=none;jumpSize=0;targetPerimeterSpacing=15;dashed=1;strokeWidth=1;entryX=0;entryY=0.5;entryDx=0;entryDy=0;" edge="1" parent="1" target="3_tqcAupVyAekN3fUpBM-65">
          <mxGeometry width="50" height="50" relative="1" as="geometry">
            <mxPoint x="641" y="1104.47" as="sourcePoint" />
            <mxPoint x="808" y="1104" as="targetPoint" />
          </mxGeometry>
        </mxCell>
        <mxCell id="3_tqcAupVyAekN3fUpBM-68" value="" style="endArrow=none;html=1;rounded=0;dashed=1;strokeColor=#CC6600;" edge="1" parent="1">
          <mxGeometry width="50" height="50" relative="1" as="geometry">
            <mxPoint x="688" y="1415" as="sourcePoint" />
            <mxPoint x="687.9999999999999" y="1103" as="targetPoint" />
          </mxGeometry>
        </mxCell>
        <mxCell id="3_tqcAupVyAekN3fUpBM-69" value="" style="endArrow=none;html=1;strokeColor=#CC6600;bendable=1;rounded=0;endFill=0;endSize=4;strokeWidth=1;startSize=4;startArrow=none;startFill=0;dashed=1;" edge="1" parent="1">
          <mxGeometry width="50" height="50" relative="1" as="geometry">
            <mxPoint x="641" y="1225" as="sourcePoint" />
            <mxPoint x="688" y="1225" as="targetPoint" />
            <Array as="points" />
          </mxGeometry>
        </mxCell>
        <mxCell id="3_tqcAupVyAekN3fUpBM-70" value="" style="endArrow=none;html=1;strokeColor=#CC6600;bendable=1;rounded=0;endFill=0;endSize=4;strokeWidth=1;startSize=4;startArrow=none;startFill=0;dashed=1;" edge="1" parent="1">
          <mxGeometry width="50" height="50" relative="1" as="geometry">
            <mxPoint x="641" y="1414.65" as="sourcePoint" />
            <mxPoint x="688" y="1414.65" as="targetPoint" />
            <Array as="points" />
          </mxGeometry>
        </mxCell>
        <mxCell id="3_tqcAupVyAekN3fUpBM-71" value="" style="endArrow=none;html=1;rounded=0;exitX=0.308;exitY=0.995;exitDx=0;exitDy=0;exitPerimeter=0;dashed=1;dashPattern=8 8;strokeWidth=1;" edge="1" parent="1">
          <mxGeometry width="50" height="50" relative="1" as="geometry">
            <mxPoint x="396.79999999999995" y="1537" as="sourcePoint" />
            <mxPoint x="397.99999999999994" y="942" as="targetPoint" />
          </mxGeometry>
        </mxCell>
        <mxCell id="3_tqcAupVyAekN3fUpBM-72" value="" style="endArrow=none;html=1;rounded=0;exitX=0.308;exitY=0.995;exitDx=0;exitDy=0;exitPerimeter=0;dashed=1;dashPattern=8 8;strokeWidth=1;" edge="1" parent="1">
          <mxGeometry width="50" height="50" relative="1" as="geometry">
            <mxPoint x="778" y="1535" as="sourcePoint" />
            <mxPoint x="779" y="940" as="targetPoint" />
          </mxGeometry>
        </mxCell>
        <mxCell id="3_tqcAupVyAekN3fUpBM-74" value="&lt;div style=&quot;&quot;&gt;&lt;br&gt;&lt;/div&gt;" style="text;html=1;align=left;verticalAlign=middle;resizable=0;points=[];autosize=1;strokeColor=none;fillColor=none;fontSize=12;fontColor=#556B82;fontFamily=Helvetica;rotation=-90;" vertex="1" parent="1">
          <mxGeometry x="640" y="1295" width="20" height="30" as="geometry" />
        </mxCell>
        <mxCell id="3_tqcAupVyAekN3fUpBM-76" value="&lt;div style=&quot;&quot;&gt;&lt;font size=&quot;1&quot; face=&quot;arial&quot;&gt;Direct OData Calls&lt;/font&gt;&lt;/div&gt;" style="text;html=1;align=left;verticalAlign=middle;resizable=0;points=[];autosize=1;strokeColor=none;fillColor=none;fontSize=12;fontColor=#CC6600;fontFamily=Helvetica;rotation=0;fontStyle=1" vertex="1" parent="1">
          <mxGeometry x="648" y="1080" width="110" height="30" as="geometry" />
        </mxCell>
        <mxCell id="3_tqcAupVyAekN3fUpBM-79" value="&lt;div style=&quot;&quot;&gt;&lt;font size=&quot;1&quot; face=&quot;arial&quot; color=&quot;#000000&quot;&gt;OData Calls via SAP BTP&lt;/font&gt;&lt;/div&gt;" style="text;html=1;align=left;verticalAlign=middle;resizable=0;points=[];autosize=1;strokeColor=none;fillColor=none;fontSize=12;fontColor=#CC6600;fontFamily=Helvetica;rotation=0;fontStyle=1" vertex="1" parent="1">
          <mxGeometry x="648" y="1428" width="140" height="30" as="geometry" />
        </mxCell>
        <mxCell id="3_tqcAupVyAekN3fUpBM-84" value="&lt;font face=&quot;arial&quot; style=&quot;font-size: 16px;&quot;&gt;&lt;b style=&quot;font-size: 16px;&quot;&gt;Dashboard User&lt;/b&gt;&lt;/font&gt;" style="text;html=1;align=left;verticalAlign=middle;resizable=0;points=[];autosize=1;strokeColor=none;fillColor=none;fontSize=12;fontColor=#1d2d3e;fontFamily=Helvetica;" vertex="1" parent="1">
          <mxGeometry x="61" y="955" width="150" height="30" as="geometry" />
        </mxCell>
        <mxCell id="3_tqcAupVyAekN3fUpBM-80" value="" style="shape=image;editableCssRules=.*;verticalLabelPosition=bottom;labelBackgroundColor=default;verticalAlign=top;aspect=fixed;imageAspect=0;image=data:image/svg+xml,PHN2ZyB4bWxucz0iaHR0cDovL3d3dy53My5vcmcvMjAwMC9zdmciIHZpZXdCb3g9Ii0wLjUgLTAuNSAyOCAyOCIgaGVpZ2h0PSIyOCIgd2lkdGg9IjI4Ij4mI3hhOwkgIDxzdHlsZSB0eXBlPSJ0ZXh0L2NzcyI+LnN0MCB7IHN0b3AtY29sb3I6IHJnYig5MSwgMTE1LCAxMzkpOyB9IC5zdDEgeyBzdG9wLWNvbG9yOiByZ2IoMzQsIDUzLCA3Mik7IH0gPC9zdHlsZT4mI3hhOwk8ZGVmcz4mI3hhOwkJPGxpbmVhckdyYWRpZW50IGdyYWRpZW50VW5pdHM9InVzZXJTcGFjZU9uVXNlIiB5Mj0iMjUuMzA5IiB4Mj0iMjMuNDU0IiB5MT0iMy40NzQiIHgxPSIyLjAzOSIgaWQ9IkEiPiYjeGE7CQkJPHN0b3AgY2xhc3M9InN0MCIvPiYjeGE7CQkJPHN0b3AgY2xhc3M9InN0MSIgb2Zmc2V0PSIxIi8+JiN4YTsJCTwvbGluZWFyR3JhZGllbnQ+JiN4YTsJPC9kZWZzPiYjeGE7CTxwYXRoIGZpbGw9InVybCgjQSkiIGQ9Ik0tLjUgMTMuNDcyYzAtMS45My4zNzEtMy43MyAxLjExMy01LjQuNzQyLTEuNzA3IDEuNzQ0LTMuMTkyIDMuMDA2LTQuNDUzUzYuMzY1IDEuMzU2IDguMDczLjYxMyAxMS41OTgtLjUgMTMuNTI4LS41czMuNzMuMzcxIDUuNCAxLjExM2MxLjcwNy43NDIgMy4xOTIgMS43NDQgNC40NTMgMy4wMDZzMi4yNjQgMi43NDYgMy4wMDYgNC40NTNjLjc0MiAxLjY3IDEuMTEzIDMuNDcgMS4xMTMgNS40cy0uMzcxIDMuNzQ4LTEuMTEzIDUuNDU1LTEuNzQ0IDMuMTkyLTMuMDA2IDQuNDUzYTE0LjI4IDE0LjI4IDAgMCAxLTQuNDUzIDMuMDA2Yy0xLjY3Ljc0Mi0zLjQ3IDEuMTEzLTUuNCAxLjExM3MtMy43NDgtLjM3MS01LjQ1NS0xLjExM2ExNC4yOCAxNC4yOCAwIDAgMS00LjQ1My0zLjAwNiAxNC4yOCAxNC4yOCAwIDAgMS0zLjAwNi00LjQ1M0MtLjEyOSAxNy4yMi0uNSAxNS40MDItLjUgMTMuNDcyem0xNi44MTEgNC4yMzFhNi42NSA2LjY1IDAgMCAxIDMuMjg0LjgzNWMxLjAwMi41MiAxLjgxOCAxLjI0MyAyLjQ0OSAyLjE3MWExMC4xNCAxMC4xNCAwIDAgMCAxLjk0OC0zLjI4NGMuNDgyLTEuMjI1LjcyNC0yLjU0Mi43MjQtMy45NTIgMC0xLjU1OS0uMjk3LTMuMDA2LS44OTEtNC4zNDItLjU5NC0xLjM3My0xLjM5Mi0yLjU2MS0yLjM5NC0zLjU2M3MtMi4xOS0xLjgtMy41NjMtMi4zOTRjLTEuMzM2LS41OTQtMi43ODMtLjg5MS00LjM0Mi0uODkxcy0zLjAyNC4yOTctNC4zOTguODkxYy0xLjMzNi41OTQtMi41MjQgMS4zOTItMy41NjMgMi4zOTRBMTEuMzUgMTEuMzUgMCAwIDAgMy4xNzQgOS4xM2MtLjU5NCAxLjMzNi0uODkxIDIuNzgzLS44OTEgNC4zNDIgMCAxLjQxLjIyMyAyLjcyOC42NjggMy45NTIuNDgyIDEuMjI1IDEuMTUgMi4zMTkgMi4wMDQgMy4yODQuNjMxLS45MjggMS40NDctMS42NTEgMi40NDktMi4xNzFhNi42NSA2LjY1IDAgMCAxIDMuMjg0LS44MzV6bTIuNzgzLTcuMDE0YTUuNjggNS42OCAwIDAgMS0uNDQ1IDIuMjI3IDUuODcgNS44NyAwIDAgMS0xLjIyNSAxLjc4MWMtLjQ4Mi40ODItMS4wNTguODcyLTEuNzI2IDEuMTY5cy0xLjM5Mi40NDUtMi4xNzEuNDQ1YTUuNjggNS42OCAwIDAgMS0yLjIyNy0uNDQ1IDYuNDQgNi40NCAwIDAgMS0xLjc4MS0xLjE2OSA2LjQ0IDYuNDQgMCAwIDEtMS4xNjktMS43ODEgNS42OCA1LjY4IDAgMCAxLS40NDUtMi4yMjdjMC0uNzc5LjE0OC0xLjUwMy40NDUtMi4xNzFBNi40NCA2LjQ0IDAgMCAxIDkuNTIgNi43MzdhNS44NyA1Ljg3IDAgMCAxIDEuNzgxLTEuMjI1IDUuNjggNS42OCAwIDAgMSAyLjIyNy0uNDQ1Yy43NzkgMCAxLjUwMy4xNDggMi4xNzEuNDQ1czEuMjQzLjcwNSAxLjcyNiAxLjIyNWE1Ljg3IDUuODcgMCAwIDEgMS4yMjUgMS43ODFjLjI5Ny42NjguNDQ1IDEuMzkyLjQ0NSAyLjE3MXptLTIuNzgzIDBjMC0uNzc5LS4yNzgtMS40MjktLjgzNS0xLjk0OC0uNTU3LS41NTctMS4yMDYtLjgzNS0xLjk0OC0uODM1YTIuNzMgMi43MyAwIDAgMC0yLjAwNC44MzVjLS41NTcuNTItLjgzNSAxLjE2OS0uODM1IDEuOTQ4YTIuNzMgMi43MyAwIDAgMCAuODM1IDIuMDA0Yy41NTcuNTIgMS4yMjUuNzc5IDIuMDA0Ljc3OS43NDIgMCAxLjM5Mi0uMjYgMS45NDgtLjc3OWEyLjczIDIuNzMgMCAwIDAgLjgzNS0yLjAwNHpNNy4wNzEgMjIuNjU3Yy44OTEuNjMxIDEuODc0IDEuMTMyIDIuOTUgMS41MDMgMS4xMTMuMzcxIDIuMjgyLjU1NyAzLjUwNy41NTcgMS4xODggMCAyLjMxOS0uMTg2IDMuMzk2LS41NTcgMS4xMTMtLjM3MSAyLjExNS0uODcyIDMuMDA2LTEuNTAzLS4zNzEtLjY2OC0uODkxLTEuMTg4LTEuNTU5LTEuNTU5LS42MzEtLjQwOC0xLjMxNy0uNjEyLTIuMDYtLjYxMmgtNS42MjJjLS43NDIgMC0xLjQ0Ny4yMDQtMi4xMTUuNjEyLS42MzEuMzcxLTEuMTMyLjg5MS0xLjUwMyAxLjU1OXoiLz4mI3hhOzwvc3ZnPg==;" vertex="1" parent="1">
          <mxGeometry x="194" y="956" width="28" height="28" as="geometry" />
        </mxCell>
        <mxCell id="3_tqcAupVyAekN3fUpBM-93" style="edgeStyle=orthogonalEdgeStyle;rounded=0;orthogonalLoop=1;jettySize=auto;html=1;entryX=0.5;entryY=1;entryDx=0;entryDy=0;exitX=0.5;exitY=0;exitDx=0;exitDy=0;" edge="1" parent="1" source="3_tqcAupVyAekN3fUpBM-6" target="3_tqcAupVyAekN3fUpBM-25">
          <mxGeometry relative="1" as="geometry">
            <mxPoint x="342.55999999999995" y="1175" as="targetPoint" />
            <mxPoint x="342.55999999999995" y="1225" as="sourcePoint" />
          </mxGeometry>
        </mxCell>
        <mxCell id="3_tqcAupVyAekN3fUpBM-94" value="" style="group" vertex="1" connectable="0" parent="1">
          <mxGeometry x="112.85" y="1195" width="190.00000000000003" height="120" as="geometry" />
        </mxCell>
        <mxCell id="3_tqcAupVyAekN3fUpBM-6" value="" style="rounded=1;whiteSpace=wrap;html=1;arcSize=24;absoluteArcSize=1;imageWidth=64;imageHeight=64;strokeWidth=1.5;" vertex="1" parent="3_tqcAupVyAekN3fUpBM-94">
          <mxGeometry width="190" height="120" as="geometry" />
        </mxCell>
        <mxCell id="3_tqcAupVyAekN3fUpBM-7" value="&lt;font color=&quot;#1d2d3e&quot; size=&quot;1&quot; face=&quot;arial&quot;&gt;&lt;b style=&quot;font-size: 14px;&quot;&gt;Docker Container&lt;/b&gt;&lt;/font&gt;&lt;div&gt;&lt;font color=&quot;#1d2d3e&quot; size=&quot;1&quot; face=&quot;arial&quot;&gt;&lt;span style=&quot;font-size: 14px;&quot;&gt;WestEurope (1.0.0.7)&lt;/span&gt;&lt;/font&gt;&lt;/div&gt;" style="text;html=1;align=left;verticalAlign=middle;resizable=0;points=[];autosize=1;strokeColor=none;fillColor=none;fontSize=12;fontColor=default;fontFamily=Helvetica;" vertex="1" parent="3_tqcAupVyAekN3fUpBM-94">
          <mxGeometry x="26.14615384615385" y="0.30999999999994543" width="160" height="50" as="geometry" />
        </mxCell>
        <mxCell id="3_tqcAupVyAekN3fUpBM-8" value="&lt;b&gt;JMeter&lt;/b&gt;" style="rounded=1;whiteSpace=wrap;html=1;strokeColor=#0070F2;fillColor=#EBF8FF;arcSize=24;absoluteArcSize=1;imageWidth=64;imageHeight=64;strokeWidth=1.5;" vertex="1" parent="3_tqcAupVyAekN3fUpBM-94">
          <mxGeometry x="32.303846153846166" y="64.61538461538453" width="116.92307692307692" height="27.692307692307693" as="geometry" />
        </mxCell>
        <mxCell id="3_tqcAupVyAekN3fUpBM-9" value="" style="endArrow=none;html=1;strokeColor=#475e75;bendable=1;rounded=0;endFill=0;endSize=4;edgeStyle=entityRelationEdgeStyle;startArrow=none;startFill=0;startSize=4;jumpStyle=none;jumpSize=0;targetPerimeterSpacing=15;strokeWidth=1.5;exitX=0.002;exitY=0.411;exitDx=0;exitDy=0;exitPerimeter=0;" edge="1" parent="3_tqcAupVyAekN3fUpBM-94" source="3_tqcAupVyAekN3fUpBM-6">
          <mxGeometry width="50" height="50" relative="1" as="geometry">
            <mxPoint x="6.150000000000006" y="50" as="sourcePoint" />
            <mxPoint x="190.00000000000003" y="50" as="targetPoint" />
          </mxGeometry>
        </mxCell>
        <mxCell id="3_tqcAupVyAekN3fUpBM-95" style="edgeStyle=orthogonalEdgeStyle;rounded=0;orthogonalLoop=1;jettySize=auto;html=1;entryX=0.5;entryY=0;entryDx=0;entryDy=0;exitX=0.5;exitY=1;exitDx=0;exitDy=0;" edge="1" parent="1" source="3_tqcAupVyAekN3fUpBM-80" target="3_tqcAupVyAekN3fUpBM-25">
          <mxGeometry relative="1" as="geometry">
            <mxPoint x="268" y="948.5" as="targetPoint" />
            <mxPoint x="268" y="991.5" as="sourcePoint" />
          </mxGeometry>
        </mxCell>
        <mxCell id="3_tqcAupVyAekN3fUpBM-96" value="&lt;font face=&quot;arial&quot;&gt;&lt;span style=&quot;font-size: 20px;&quot;&gt;&lt;b&gt;Network Performance Measurement Landscape&lt;/b&gt;&lt;/span&gt;&lt;/font&gt;" style="text;html=1;align=left;verticalAlign=middle;resizable=0;points=[];autosize=1;strokeColor=none;fillColor=none;fontSize=12;fontColor=#1d2d3e;fontFamily=Helvetica;" vertex="1" parent="1">
          <mxGeometry x="42" y="870" width="470" height="40" as="geometry" />
        </mxCell>
      </root>
    </mxGraphModel>
  </diagram>
</mxfile>
